<svg width="20" height="19" viewBox="0 0 20 19" fill="none" xmlns="http://www.w3.org/2000/svg">
<path d="M17.612 2.4322C17.1722 1.97815 16.65 1.61797 16.0752 1.37222C15.5005 1.12648 14.8844 1 14.2623 1C13.6401 1 13.0241 1.12648 12.4493 1.37222C11.8746 1.61797 11.3524 1.97815 10.9126 2.4322L9.99977 3.37407L9.08699 2.4322C8.19858 1.51548 6.99364 1.00048 5.73725 1.00048C4.48085 1.00048 3.27591 1.51548 2.38751 2.4322C1.4991 3.34891 1 4.59225 1 5.88868C1 7.18511 1.4991 8.42845 2.38751 9.34516L3.30029 10.287L9.99977 17.2L16.6992 10.287L17.612 9.34516C18.0521 8.89133 18.4011 8.35248 18.6393 7.75941C18.8774 7.16633 19 6.53065 19 5.88868C19 5.24671 18.8774 4.61103 18.6393 4.01795C18.4011 3.42488 18.0521 2.88603 17.612 2.4322V2.4322Z" stroke="#999999" stroke-width="2" stroke-linecap="round" stroke-linejoin="round"/>
</svg>
