<svg width="20" height="22" viewBox="0 0 20 22" fill="none"
    xmlns="http://www.w3.org/2000/svg">
    <path d="M7 21V14C7 12.3431 8.34315 11 10 11V11C11.6569 11 13 12.3431 13 14V21M19 19V9.46725C19 8.54148 18.5726 7.66756 17.8418 7.0992L11.8418 2.43253C10.7585 1.58994 9.24151 1.58994 8.15818 2.43253L2.15818 7.09919C1.42742 7.66756 1 8.54148 1 9.46725V19C1 19.5304 1.21071 20.0391 1.58579 20.4142C1.96086 20.7893 2.46957 21 3 21H17C17.5304 21 18.0391 20.7893 18.4142 20.4142C18.7893 20.0391 19 19.5304 19 19Z" stroke="#999999" stroke-width="2" stroke-linecap="round" stroke-linejoin="round"/>
</svg>
