<svg width="178" height="24" viewBox="0 0 178 24" fill="none" xmlns="http://www.w3.org/2000/svg">
<path d="M7.83681 19.3472C6.41495 19.3472 5.04268 19.1736 3.72001 18.8264C2.41388 18.4627 1.34748 17.9997 0.520813 17.4376L2.13281 13.8168C2.90988 14.3128 3.80268 14.7261 4.81121 15.0568C5.83628 15.3709 6.85308 15.528 7.86161 15.528C8.53948 15.528 9.08508 15.4701 9.49841 15.3544C9.91175 15.2221 10.2093 15.0568 10.3912 14.8584C10.5896 14.6435 10.6888 14.3955 10.6888 14.1144C10.6888 13.7176 10.5069 13.4035 10.1432 13.172C9.77948 12.9405 9.30828 12.7504 8.72961 12.6016C8.15095 12.4528 7.50615 12.304 6.79521 12.1552C6.10081 12.0064 5.39815 11.8163 4.68721 11.5848C3.99281 11.3533 3.35628 11.0557 2.77761 10.692C2.19895 10.3117 1.72775 9.82399 1.36401 9.22879C1.00028 8.61705 0.818413 7.84826 0.818413 6.92239C0.818413 5.88079 1.09948 4.93839 1.66161 4.09519C2.24028 3.25199 3.10001 2.57412 4.24081 2.06159C5.38161 1.54906 6.80348 1.29279 8.50641 1.29279C9.64721 1.29279 10.7632 1.42506 11.8544 1.68959C12.9621 1.93759 13.9459 2.30959 14.8056 2.80559L13.2928 6.45119C12.4661 6.00479 11.6477 5.67412 10.8376 5.45919C10.0275 5.22772 9.24215 5.11199 8.48161 5.11199C7.80375 5.11199 7.25815 5.18639 6.84481 5.33519C6.43148 5.46746 6.13388 5.64932 5.95201 5.88079C5.77015 6.11226 5.67921 6.37679 5.67921 6.67439C5.67921 7.05466 5.85281 7.36052 6.20001 7.59199C6.56375 7.80692 7.03495 7.98879 7.61361 8.13759C8.20881 8.26986 8.85361 8.41039 9.54801 8.55919C10.2589 8.70799 10.9616 8.89812 11.656 9.12959C12.3669 9.34452 13.0117 9.64212 13.5904 10.0224C14.1691 10.3861 14.632 10.8739 14.9792 11.4856C15.3429 12.0808 15.5248 12.8331 15.5248 13.7424C15.5248 14.7509 15.2355 15.6851 14.6568 16.5448C14.0947 17.388 13.2432 18.0659 12.1024 18.5784C10.9781 19.0909 9.55628 19.3472 7.83681 19.3472Z" fill="#0084F4"/>
<path d="M24.3154 19.2232C22.844 19.2232 21.5378 18.9256 20.397 18.3304C19.2562 17.7352 18.3552 16.9168 17.6938 15.8752C17.049 14.8171 16.7266 13.6101 16.7266 12.2544C16.7266 10.8987 17.049 9.69999 17.6938 8.65839C18.3552 7.61679 19.2562 6.80666 20.397 6.22799C21.5378 5.63279 22.844 5.33519 24.3154 5.33519C25.7869 5.33519 27.093 5.63279 28.2338 6.22799C29.3912 6.80666 30.2922 7.61679 30.937 8.65839C31.5818 9.69999 31.9042 10.8987 31.9042 12.2544C31.9042 13.6101 31.5818 14.8171 30.937 15.8752C30.2922 16.9168 29.3912 17.7352 28.2338 18.3304C27.093 18.9256 25.7869 19.2232 24.3154 19.2232ZM24.3154 15.4784C24.861 15.4784 25.3405 15.3544 25.7538 15.1064C26.1837 14.8584 26.5226 14.4947 26.7706 14.0152C27.0186 13.5192 27.1426 12.9323 27.1426 12.2544C27.1426 11.5765 27.0186 11.0061 26.7706 10.5432C26.5226 10.0637 26.1837 9.69999 25.7538 9.45199C25.3405 9.20399 24.861 9.07999 24.3154 9.07999C23.7864 9.07999 23.3069 9.20399 22.877 9.45199C22.4637 9.69999 22.1248 10.0637 21.8602 10.5432C21.6122 11.0061 21.4882 11.5765 21.4882 12.2544C21.4882 12.9323 21.6122 13.5192 21.8602 14.0152C22.1248 14.4947 22.4637 14.8584 22.877 15.1064C23.3069 15.3544 23.7864 15.4784 24.3154 15.4784Z" fill="#0084F4"/>
<path d="M39.7414 19.2232C38.6502 19.2232 37.6665 19.0083 36.7902 18.5784C35.9305 18.1485 35.2526 17.4789 34.7566 16.5696C34.2772 15.6437 34.0374 14.4781 34.0374 13.0728V5.55839H38.7494V12.304C38.7494 13.3456 38.9396 14.0896 39.3198 14.536C39.7166 14.9824 40.2705 15.2056 40.9814 15.2056C41.4444 15.2056 41.866 15.0981 42.2462 14.8832C42.6265 14.6683 42.9324 14.3293 43.1638 13.8664C43.3953 13.3869 43.511 12.7752 43.511 12.0312V5.55839H48.223V19H43.7342V15.2056L44.6022 16.272C44.1393 17.264 43.4697 18.008 42.5934 18.504C41.7172 18.9835 40.7665 19.2232 39.7414 19.2232Z" fill="#0084F4"/>
<path d="M60.0125 5.33519C61.0541 5.33519 61.9965 5.55012 62.8397 5.97999C63.6829 6.39332 64.3443 7.03812 64.8237 7.91439C65.3197 8.79066 65.5677 9.92319 65.5677 11.312V19H60.8557V12.0808C60.8557 11.1219 60.6573 10.4275 60.2605 9.99759C59.8803 9.55119 59.3429 9.32799 58.6485 9.32799C58.1525 9.32799 57.6979 9.44372 57.2845 9.67519C56.8712 9.89012 56.5488 10.2291 56.3173 10.692C56.0859 11.1549 55.9701 11.7584 55.9701 12.5024V19H51.2581V5.55839H55.7469V9.37759L54.8789 8.26159C55.3915 7.28612 56.0941 6.55866 56.9869 6.07919C57.8797 5.58319 58.8883 5.33519 60.0125 5.33519Z" fill="#0084F4"/>
<path d="M74.5484 19.2232C73.325 19.2232 72.209 18.9421 71.2004 18.38C70.2084 17.8013 69.4148 16.9995 68.8196 15.9744C68.2244 14.9328 67.9268 13.6928 67.9268 12.2544C67.9268 10.8325 68.2244 9.60906 68.8196 8.58399C69.4148 7.54239 70.2084 6.74052 71.2004 6.17839C72.209 5.61626 73.325 5.33519 74.5484 5.33519C75.7058 5.33519 76.6812 5.58319 77.4748 6.07919C78.285 6.57519 78.8967 7.33572 79.31 8.36079C79.7234 9.38586 79.93 10.6837 79.93 12.2544C79.93 13.8581 79.7316 15.1725 79.3348 16.1976C78.938 17.2227 78.3428 17.9832 77.5492 18.4792C76.7556 18.9752 75.7554 19.2232 74.5484 19.2232ZM75.5404 15.4784C76.0695 15.4784 76.5407 15.3544 76.954 15.1064C77.3839 14.8584 77.7228 14.4947 77.9708 14.0152C78.2188 13.5192 78.3428 12.9323 78.3428 12.2544C78.3428 11.5765 78.2188 11.0061 77.9708 10.5432C77.7228 10.0637 77.3839 9.69999 76.954 9.45199C76.5407 9.20399 76.0695 9.07999 75.5404 9.07999C74.9948 9.07999 74.5071 9.20399 74.0772 9.45199C73.6639 9.69999 73.3332 10.0637 73.0852 10.5432C72.8372 11.0061 72.7132 11.5765 72.7132 12.2544C72.7132 12.9323 72.8372 13.5192 73.0852 14.0152C73.3332 14.4947 73.6639 14.8584 74.0772 15.1064C74.5071 15.3544 74.9948 15.4784 75.5404 15.4784ZM78.4916 19V16.6936L78.5164 12.2544L78.2684 7.81519V0.598389H82.9804V19H78.4916Z" fill="#0084F4"/>
<path d="M92.336 19.3472C90.9142 19.3472 89.5419 19.1736 88.2192 18.8264C86.9131 18.4627 85.8467 17.9997 85.02 17.4376L86.632 13.8168C87.4091 14.3128 88.3019 14.7261 89.3104 15.0568C90.3355 15.3709 91.3523 15.528 92.3608 15.528C93.0387 15.528 93.5843 15.4701 93.9976 15.3544C94.411 15.2221 94.7086 15.0568 94.8904 14.8584C95.0888 14.6435 95.188 14.3955 95.188 14.1144C95.188 13.7176 95.0062 13.4035 94.6424 13.172C94.2787 12.9405 93.8075 12.7504 93.2288 12.6016C92.6502 12.4528 92.0054 12.304 91.2944 12.1552C90.6 12.0064 89.8974 11.8163 89.1864 11.5848C88.492 11.3533 87.8555 11.0557 87.2768 10.692C86.6982 10.3117 86.227 9.82399 85.8632 9.22879C85.4995 8.61705 85.3176 7.84826 85.3176 6.92239C85.3176 5.88079 85.5987 4.93839 86.1608 4.09519C86.7395 3.25199 87.5992 2.57412 88.74 2.06159C89.8808 1.54906 91.3027 1.29279 93.0056 1.29279C94.1464 1.29279 95.2624 1.42506 96.3536 1.68959C97.4614 1.93759 98.4451 2.30959 99.3048 2.80559L97.792 6.45119C96.9654 6.00479 96.147 5.67412 95.3368 5.45919C94.5267 5.22772 93.7414 5.11199 92.9808 5.11199C92.303 5.11199 91.7574 5.18639 91.344 5.33519C90.9307 5.46746 90.6331 5.64932 90.4512 5.88079C90.2694 6.11226 90.1784 6.37679 90.1784 6.67439C90.1784 7.05466 90.352 7.36052 90.6992 7.59199C91.063 7.80692 91.5342 7.98879 92.1128 8.13759C92.708 8.26986 93.3528 8.41039 94.0472 8.55919C94.7582 8.70799 95.4608 8.89812 96.1552 9.12959C96.8662 9.34452 97.511 9.64212 98.0896 10.0224C98.6683 10.3861 99.1312 10.8739 99.4784 11.4856C99.8422 12.0808 100.024 12.8331 100.024 13.7424C100.024 14.7509 99.7347 15.6851 99.156 16.5448C98.5939 17.388 97.7424 18.0659 96.6016 18.5784C95.4774 19.0909 94.0555 19.3472 92.336 19.3472Z" fill="#0084F4"/>
<path d="M110.526 19.2232C109.385 19.2232 108.41 18.9752 107.599 18.4792C106.789 17.9667 106.169 17.2061 105.739 16.1976C105.326 15.1725 105.119 13.8664 105.119 12.2792C105.119 10.6755 105.318 9.36932 105.715 8.36079C106.111 7.33572 106.707 6.57519 107.5 6.07919C108.31 5.58319 109.319 5.33519 110.526 5.33519C111.749 5.33519 112.857 5.62452 113.849 6.20319C114.858 6.76532 115.651 7.56719 116.23 8.60879C116.825 9.63386 117.123 10.8573 117.123 12.2792C117.123 13.7011 116.825 14.9328 116.23 15.9744C115.651 17.016 114.858 17.8179 113.849 18.38C112.857 18.9421 111.749 19.2232 110.526 19.2232ZM102.069 23.8112V5.55839H106.558V7.83999L106.533 12.2792L106.781 16.7432V23.8112H102.069ZM109.534 15.4784C110.063 15.4784 110.534 15.3544 110.947 15.1064C111.377 14.8584 111.716 14.4947 111.964 14.0152C112.229 13.5357 112.361 12.9571 112.361 12.2792C112.361 11.6013 112.229 11.0227 111.964 10.5432C111.716 10.0637 111.377 9.69999 110.947 9.45199C110.534 9.20399 110.063 9.07999 109.534 9.07999C109.005 9.07999 108.525 9.20399 108.095 9.45199C107.682 9.69999 107.343 10.0637 107.079 10.5432C106.831 11.0227 106.707 11.6013 106.707 12.2792C106.707 12.9571 106.831 13.5357 107.079 14.0152C107.343 14.4947 107.682 14.8584 108.095 15.1064C108.525 15.3544 109.005 15.4784 109.534 15.4784Z" fill="#0084F4"/>
<path d="M128.067 5.33519C129.109 5.33519 130.051 5.55012 130.894 5.97999C131.738 6.39332 132.399 7.03812 132.878 7.91439C133.374 8.79066 133.622 9.92319 133.622 11.312V19H128.91V12.0808C128.91 11.1219 128.712 10.4275 128.315 9.99759C127.935 9.55119 127.398 9.32799 126.703 9.32799C126.207 9.32799 125.753 9.44372 125.339 9.67519C124.926 9.89012 124.603 10.2291 124.372 10.692C124.141 11.1549 124.025 11.7584 124.025 12.5024V19H119.313V0.598389H124.025V9.37759L122.934 8.26159C123.446 7.28612 124.149 6.55866 125.042 6.07919C125.934 5.58319 126.943 5.33519 128.067 5.33519Z" fill="#0084F4"/>
<path d="M143.794 19.2232C142.206 19.2232 140.818 18.9256 139.627 18.3304C138.453 17.7187 137.536 16.892 136.874 15.8504C136.23 14.7923 135.907 13.5936 135.907 12.2544C135.907 10.9152 136.221 9.72479 136.85 8.68319C137.494 7.62506 138.379 6.80666 139.503 6.22799C140.627 5.63279 141.892 5.33519 143.298 5.33519C144.62 5.33519 145.827 5.60799 146.918 6.15359C148.01 6.68266 148.878 7.46799 149.522 8.50959C150.167 9.55119 150.49 10.816 150.49 12.304C150.49 12.4693 150.481 12.6595 150.465 12.8744C150.448 13.0893 150.432 13.2877 150.415 13.4696H139.776V10.9896H147.91L146.125 11.684C146.141 11.0723 146.026 10.5432 145.778 10.0968C145.546 9.65039 145.215 9.30319 144.786 9.05519C144.372 8.80719 143.884 8.68319 143.322 8.68319C142.76 8.68319 142.264 8.80719 141.834 9.05519C141.421 9.30319 141.099 9.65866 140.867 10.1216C140.636 10.568 140.52 11.0971 140.52 11.7088V12.428C140.52 13.0893 140.652 13.6597 140.917 14.1392C141.198 14.6187 141.595 14.9907 142.107 15.2552C142.62 15.5032 143.231 15.6272 143.942 15.6272C144.604 15.6272 145.166 15.5363 145.629 15.3544C146.108 15.156 146.579 14.8584 147.042 14.4616L149.522 17.0408C148.878 17.7517 148.084 18.2973 147.142 18.6776C146.199 19.0413 145.083 19.2232 143.794 19.2232Z" fill="#0084F4"/>
<path d="M152.662 19V5.55839H157.151V9.47679L156.481 8.36079C156.878 7.35226 157.523 6.59999 158.416 6.10399C159.308 5.59146 160.391 5.33519 161.664 5.33519V9.57599C161.449 9.54292 161.259 9.52639 161.094 9.52639C160.945 9.50986 160.78 9.50159 160.598 9.50159C159.639 9.50159 158.862 9.76612 158.267 10.2952C157.672 10.8077 157.374 11.6509 157.374 12.8248V19H152.662Z" fill="#0084F4"/>
<path d="M170.531 19.2232C168.944 19.2232 167.555 18.9256 166.365 18.3304C165.191 17.7187 164.273 16.892 163.612 15.8504C162.967 14.7923 162.645 13.5936 162.645 12.2544C162.645 10.9152 162.959 9.72479 163.587 8.68319C164.232 7.62506 165.116 6.80666 166.241 6.22799C167.365 5.63279 168.63 5.33519 170.035 5.33519C171.358 5.33519 172.565 5.60799 173.656 6.15359C174.747 6.68266 175.615 7.46799 176.26 8.50959C176.905 9.55119 177.227 10.816 177.227 12.304C177.227 12.4693 177.219 12.6595 177.202 12.8744C177.186 13.0893 177.169 13.2877 177.153 13.4696H166.513V10.9896H174.648L172.862 11.684C172.879 11.0723 172.763 10.5432 172.515 10.0968C172.284 9.65039 171.953 9.30319 171.523 9.05519C171.11 8.80719 170.622 8.68319 170.06 8.68319C169.498 8.68319 169.002 8.80719 168.572 9.05519C168.158 9.30319 167.836 9.65866 167.605 10.1216C167.373 10.568 167.257 11.0971 167.257 11.7088V12.428C167.257 13.0893 167.39 13.6597 167.654 14.1392C167.935 14.6187 168.332 14.9907 168.845 15.2552C169.357 15.5032 169.969 15.6272 170.68 15.6272C171.341 15.6272 171.903 15.5363 172.366 15.3544C172.846 15.156 173.317 14.8584 173.78 14.4616L176.26 17.0408C175.615 17.7517 174.821 18.2973 173.879 18.6776C172.937 19.0413 171.821 19.2232 170.531 19.2232Z" fill="#0084F4"/>
</svg>
